<svg width="608" height="704" viewBox="0 0 608 704" fill="none" xmlns="http://www.w3.org/2000/svg">
<g opacity="0.2">
<path d="M-542.877 323.511C-542.695 319.66 -541.052 315.882 -538.223 312.685L-87.0753 -201.009C-83.1507 -205.514 -77.2181 -208.493 -70.3729 -209.51C-63.5276 -210.454 -56.6824 -209.292 -51.0237 -206.168L596.08 152.183C603.382 156.252 607.489 162.864 607.124 169.984C606.941 173.835 605.298 177.613 602.469 180.81L151.322 694.504C147.397 699.009 141.465 701.988 134.619 703.005C127.774 703.95 120.929 702.787 115.27 699.663L-531.742 341.312C-539.044 337.244 -543.242 330.632 -542.877 323.511ZM605.025 169.912C605.39 163.372 601.557 157.269 594.894 153.563L-52.2102 -204.787C-57.4126 -207.693 -63.7102 -208.783 -70.0078 -207.911C-76.3055 -207.04 -81.6904 -204.278 -85.3412 -200.137L-536.489 313.557C-539.044 316.536 -540.504 319.951 -540.778 323.511C-541.143 330.05 -537.31 336.154 -530.647 339.859L116.457 698.21C121.659 701.116 127.957 702.206 134.254 701.334C140.552 700.462 145.937 697.701 149.588 693.56L600.735 179.866C603.382 176.959 604.842 173.472 605.025 169.912Z" fill="#FFF8F0"/>
<path d="M-546.254 303.675C-546.072 299.824 -544.429 296.046 -541.508 292.922L-93.7381 -203.334C-89.8134 -207.694 -83.9722 -210.6 -77.3094 -211.472C-70.6468 -212.344 -63.984 -211.109 -58.5078 -207.984L566.6 147.605C573.537 151.601 577.461 157.995 577.096 164.825C576.914 168.676 575.271 172.454 572.35 175.579L124.58 671.835C116.457 680.844 100.667 682.879 89.3495 676.485L-535.758 320.823C-542.695 316.899 -546.62 310.505 -546.254 303.675ZM574.997 164.753C575.362 158.504 571.711 152.619 565.322 148.986L-59.7856 -206.676C-64.8055 -209.51 -70.9206 -210.673 -77.0357 -209.873C-83.1508 -209.074 -88.5357 -206.458 -92.0952 -202.462L-539.866 293.794C-542.512 296.7 -543.973 300.115 -544.155 303.675C-544.52 309.924 -540.87 315.809 -534.481 319.442L90.6273 675.032C101.032 680.917 115.544 679.028 122.937 670.817L570.707 174.561C573.354 171.728 574.814 168.313 574.997 164.753Z" fill="#FFF8F0"/>
<path d="M-549.723 283.767C-549.54 279.916 -547.897 276.211 -544.977 273.014L-100.583 -205.804C-92.5515 -214.451 -77.0356 -216.34 -66.1745 -209.946L537.029 142.955C543.691 146.806 547.433 153.055 547.068 159.594C546.886 163.445 545.243 167.151 542.322 170.348L97.9288 649.166C94.0043 653.38 88.2542 656.141 81.774 656.867C75.2939 657.667 68.8138 656.359 63.4288 653.307L-539.774 300.406C-546.346 296.555 -550.088 290.306 -549.723 283.767ZM544.969 159.522C545.334 153.564 541.866 147.824 535.842 144.336L-67.361 -208.565C-77.4007 -214.451 -91.5475 -212.707 -98.9404 -204.787L-543.334 274.031C-545.981 276.937 -547.532 280.28 -547.715 283.84C-548.08 289.798 -544.611 295.538 -538.588 299.025L64.6154 651.927C69.4526 654.76 75.3852 655.923 81.409 655.196C87.3416 654.47 92.6353 651.999 96.1948 648.148L540.588 169.33C543.235 166.497 544.786 163.082 544.969 159.522Z" fill="#FFF8F0"/>
<path d="M-553.191 263.931C-553.009 260.08 -551.275 256.375 -548.354 253.25L-107.429 -208.13C-103.595 -212.198 -97.9367 -214.814 -91.5478 -215.468C-85.1589 -216.195 -78.8613 -214.814 -73.7502 -211.762L507.457 138.45C513.754 142.229 517.314 148.259 516.949 154.508C516.766 158.359 515.032 162.064 512.112 165.189L71.1865 626.569C63.1547 634.924 48.0952 636.595 37.5078 630.202L-543.699 279.989C-549.997 276.138 -553.556 270.18 -553.191 263.931ZM514.941 154.363C515.215 148.623 512.02 143.173 506.27 139.686L-74.9367 -210.527C-79.5915 -213.361 -85.3415 -214.523 -91.1828 -213.942C-97.024 -213.288 -102.135 -210.891 -105.695 -207.185L-546.711 254.268C-549.449 257.101 -551.001 260.444 -551.183 264.004C-551.457 269.744 -548.263 275.193 -542.513 278.681L38.6944 628.894C48.369 634.706 62.1507 633.18 69.4523 625.551L510.377 164.171C513.207 161.265 514.667 157.923 514.941 154.363Z" fill="#FFF8F0"/>
<path d="M-556.659 244.023C-556.476 240.172 -554.742 236.466 -551.73 233.415L-114.182 -210.527C-110.349 -214.451 -104.781 -216.921 -98.5748 -217.502C-92.3685 -218.084 -86.2534 -216.776 -81.3248 -213.724L477.977 133.8C483.91 137.506 487.287 143.246 486.922 149.277C486.739 153.127 485.005 156.833 481.993 159.885L44.4452 603.827C40.6119 607.75 35.0444 610.221 28.838 610.802C22.6317 611.383 16.5166 610.075 11.588 607.024L-547.714 259.499C-553.647 255.794 -557.024 250.054 -556.659 244.023ZM484.823 149.204C485.096 143.755 482.085 138.451 476.7 135.108L-82.6026 -212.416C-87.0748 -215.177 -92.6423 -216.412 -98.3011 -215.904C-103.96 -215.323 -108.98 -213.07 -112.539 -209.51L-550.087 234.432C-552.825 237.193 -554.377 240.608 -554.559 244.096C-554.833 249.545 -551.821 254.849 -546.436 258.191L12.8658 605.716C17.338 608.477 22.9055 609.712 28.5642 609.203C34.223 608.622 39.2428 606.37 42.8024 602.809L480.35 158.867C483.089 156.106 484.64 152.764 484.823 149.204Z" fill="#FFF8F0"/>
<path d="M-560.127 224.187C-559.944 220.337 -558.21 216.631 -555.107 213.652L-120.936 -212.852C-112.996 -220.626 -98.6662 -221.789 -88.9003 -215.54L448.406 129.296C453.973 132.856 457.168 138.451 456.894 144.191C456.711 148.042 454.977 151.747 451.874 154.799L17.7031 581.303C13.8698 585.081 8.39349 587.406 2.36969 587.915C-3.65411 588.423 -9.58667 587.043 -14.3327 583.991L-551.73 239.082C-557.298 235.449 -560.492 229.927 -560.127 224.187ZM454.795 144.045C455.069 138.814 452.239 133.801 447.128 130.531L-90.178 -214.305C-99.0312 -219.973 -112.174 -218.883 -119.293 -211.835L-553.464 214.669C-556.294 217.43 -557.845 220.773 -558.028 224.26C-558.302 229.492 -555.472 234.505 -550.361 237.775L-13.0549 582.611C-8.7652 585.372 -3.38031 586.607 2.18719 586.171C7.66339 585.735 12.6832 583.555 16.1515 580.14L450.323 153.636C453.061 150.875 454.612 147.533 454.795 144.045Z" fill="#FFF8F0"/>
<path d="M-563.595 204.279C-563.413 200.428 -561.587 196.723 -558.484 193.743L-127.69 -215.322C-123.857 -218.955 -118.563 -221.135 -112.631 -221.571C-106.698 -222.007 -100.948 -220.554 -96.3846 -217.502L418.925 124.573C424.31 128.133 427.14 133.365 426.866 138.887C426.683 142.81 424.858 146.443 421.755 149.422L-9.03925 558.488C-16.8885 565.972 -30.944 566.916 -40.2535 560.668L-555.655 218.593C-561.04 215.032 -563.96 209.874 -563.595 204.279ZM424.767 138.814C425.041 133.8 422.394 129.078 417.556 125.881L-97.7536 -216.267C-101.861 -219.028 -107.063 -220.336 -112.448 -219.9C-117.833 -219.537 -122.67 -217.502 -126.139 -214.233L-556.933 194.833C-559.762 197.522 -561.405 200.864 -561.587 204.352C-561.861 209.365 -559.214 214.088 -554.377 217.285L-39.067 559.432C-30.5789 565.1 -17.8011 564.155 -10.7734 557.398L420.021 148.332C422.941 145.644 424.584 142.374 424.767 138.814Z" fill="#FFF8F0"/>
<path d="M-567.064 184.443C-566.881 180.52 -565.056 176.959 -561.77 173.98L-134.353 -217.648C-130.611 -221.135 -125.317 -223.17 -119.567 -223.533C-113.817 -223.824 -108.25 -222.37 -103.869 -219.391L389.536 119.995C394.556 123.483 397.294 128.424 396.929 133.728C396.747 137.651 394.921 141.212 391.635 144.191L-35.7816 535.819C-39.5237 539.306 -44.8173 541.341 -50.5673 541.704C-56.3174 541.995 -61.8848 540.541 -66.2657 537.562L-559.671 198.176C-564.691 194.688 -567.429 189.675 -567.064 184.443ZM394.739 133.655C395.012 128.86 392.548 124.355 387.985 121.231L-105.329 -218.156C-109.254 -220.845 -114.274 -222.225 -119.476 -221.934C-124.678 -221.644 -129.424 -219.755 -132.801 -216.63L-560.219 174.998C-563.139 177.686 -564.782 180.956 -564.965 184.443C-565.238 189.239 -562.774 193.744 -558.211 196.868L-64.8054 536.255C-60.8808 538.943 -55.861 540.323 -50.6586 540.033C-45.4562 539.742 -40.7102 537.853 -37.3332 534.729L390.084 143.101C392.913 140.412 394.556 137.143 394.739 133.655Z" fill="#FFF8F0"/>
<path d="M-570.624 164.535C-570.441 160.684 -568.524 156.979 -565.239 154.145L-141.29 -220.045C-137.548 -223.387 -132.345 -225.277 -126.778 -225.567C-121.21 -225.785 -115.825 -224.259 -111.627 -221.28L359.782 115.418C364.437 118.76 366.993 123.556 366.719 128.569C366.536 132.42 364.62 136.126 361.334 138.959L-62.615 513.149C-66.3571 516.492 -71.5595 518.381 -77.127 518.672C-82.6944 518.889 -88.0793 517.364 -92.2778 514.385L-563.687 177.686C-568.342 174.344 -570.897 169.548 -570.624 164.535ZM364.711 128.497C364.985 123.992 362.703 119.705 358.413 116.653L-112.996 -220.118C-116.738 -222.806 -121.575 -224.187 -126.687 -223.969C-131.706 -223.751 -136.361 -222.007 -139.738 -219.028L-563.687 155.162C-566.608 157.778 -568.342 161.047 -568.524 164.535C-568.798 169.04 -566.516 173.327 -562.227 176.378L-90.8175 513.077C-87.0754 515.765 -82.2381 517.146 -77.127 516.928C-72.1071 516.71 -67.4524 514.966 -64.0754 511.987L359.874 137.797C362.794 135.254 364.528 131.911 364.711 128.497Z" fill="#FFF8F0"/>
<path d="M-574.092 144.699C-573.909 140.848 -571.901 137.143 -568.616 134.309L-148.044 -222.443C-144.302 -225.64 -139.282 -227.457 -133.806 -227.602C-128.329 -227.747 -123.127 -226.221 -119.203 -223.242L330.302 110.768C334.683 114.037 336.965 118.615 336.782 123.338C336.6 127.188 334.592 130.894 331.306 133.728L-89.266 490.48C-96.9326 497.019 -109.893 497.31 -118.107 491.206L-567.612 157.269C-571.993 153.999 -574.366 149.422 -574.092 144.699ZM334.683 123.265C334.957 118.978 332.766 114.909 328.842 112.003L-120.572 -222.007C-124.131 -224.696 -128.786 -226.076 -133.714 -225.931C-138.643 -225.785 -143.115 -224.187 -146.492 -221.353L-567.064 135.399C-570.076 137.942 -571.81 141.211 -571.993 144.699C-572.267 148.986 -570.076 153.055 -566.243 155.961L-116.738 489.971C-109.345 495.493 -97.7541 495.13 -90.8176 489.317L329.754 132.565C332.766 130.022 334.5 126.752 334.683 123.265Z" fill="#FFF8F0"/>
<path d="M-577.56 124.791C-577.378 120.94 -575.37 117.235 -571.901 114.474L-154.706 -224.841C-147.04 -231.089 -134.444 -231.162 -126.595 -225.131L300.913 106.191C304.929 109.315 307.12 113.674 306.846 118.179C306.663 122.03 304.655 125.736 301.187 128.497L-116.008 467.811C-123.675 474.059 -136.27 474.132 -144.119 468.101L-571.628 136.78C-575.643 133.655 -577.834 129.296 -577.56 124.791ZM304.655 118.106C304.838 114.11 302.921 110.187 299.27 107.353L-128.147 -223.969C-135.175 -229.418 -146.401 -229.273 -153.337 -223.751L-570.532 115.563C-573.544 118.034 -575.37 121.303 -575.552 124.791C-575.735 128.787 -573.818 132.711 -570.167 135.544L-142.659 466.866C-135.631 472.315 -124.405 472.17 -117.56 466.648L299.635 127.334C302.739 124.864 304.473 121.594 304.655 118.106Z" fill="#FFF8F0"/>
<path d="M-581.119 104.955C-580.937 101.032 -578.838 97.3986 -575.369 94.7102L-161.551 -227.238C-153.976 -233.124 -141.746 -233.051 -134.262 -227.02L271.251 101.613C274.993 104.664 277.001 108.806 276.727 113.02C276.544 116.944 274.445 120.577 270.977 123.265L-142.841 445.141C-150.417 451.026 -162.647 450.954 -170.131 444.923L-575.643 116.29C-579.294 113.311 -581.302 109.169 -581.119 104.955ZM274.719 112.947C274.901 109.169 273.167 105.464 269.79 102.775L-135.722 -225.858C-142.385 -231.235 -153.246 -231.307 -160.091 -226.076L-573.909 95.8728C-577.012 98.3432 -578.838 101.54 -579.02 105.028C-579.203 108.806 -577.469 112.512 -574.092 115.2L-168.579 443.833C-161.917 449.21 -151.055 449.283 -144.21 444.051L269.608 122.175C272.711 119.632 274.536 116.362 274.719 112.947Z" fill="#FFF8F0"/>
<path d="M-584.588 85.0467C-584.405 81.1232 -582.306 77.4903 -578.655 74.8019L-168.306 -229.636C-164.655 -232.325 -159.909 -233.778 -154.889 -233.632C-149.869 -233.487 -145.214 -231.816 -141.837 -228.91L241.77 97.0353C245.239 99.9417 247.064 103.793 246.79 107.861C246.608 111.785 244.508 115.418 240.858 118.106L-169.583 422.472C-177.159 428.066 -189.024 427.776 -196.052 421.745L-579.568 95.8728C-583.036 92.8938 -584.862 89.1156 -584.588 85.0467ZM244.691 107.716C244.873 104.156 243.322 100.741 240.219 98.1252L-143.389 -227.82C-146.401 -230.435 -150.508 -231.889 -154.98 -232.034C-159.452 -232.179 -163.651 -230.871 -166.937 -228.474L-577.286 76.0371C-580.481 78.4348 -582.397 81.6318 -582.58 85.1194C-582.762 88.6797 -581.211 92.0946 -578.108 94.7103L-194.5 420.655C-188.202 425.959 -177.706 426.25 -170.952 421.309L239.489 116.798C242.683 114.473 244.508 111.204 244.691 107.716Z" fill="#FFF8F0"/>
<path d="M-588.147 65.211C-587.965 61.2875 -585.774 57.6545 -582.032 55.0388L-175.059 -232.034C-167.575 -237.338 -156.075 -236.757 -149.413 -230.799L212.199 92.4579C215.393 95.2915 216.945 98.9244 216.762 102.703C216.58 106.626 214.389 110.259 210.647 112.875L-196.325 399.875C-203.809 405.179 -215.31 404.598 -221.972 398.64L-583.584 75.3832C-586.778 72.6222 -588.33 68.9893 -588.147 65.211ZM214.754 102.557C214.937 99.2151 213.477 96.0181 210.739 93.4751L-150.964 -229.709C-156.897 -235.013 -167.028 -235.449 -173.69 -230.799L-580.663 56.274C-583.949 58.5991 -585.865 61.7961 -586.048 65.2837C-586.231 68.6259 -584.77 71.8229 -582.032 74.366L-220.421 397.623C-214.488 402.927 -204.357 403.363 -197.694 398.712L209.278 111.64C212.655 109.242 214.572 106.045 214.754 102.557Z" fill="#FFF8F0"/>
<path d="M-591.706 45.3026C-591.524 41.379 -589.242 37.6735 -585.409 35.2031L-181.813 -234.432C-178.162 -236.829 -173.599 -237.992 -168.944 -237.701C-164.289 -237.411 -160 -235.594 -156.988 -232.761L182.719 87.735C185.548 90.4233 187.009 93.8383 186.826 97.3985C186.644 101.322 184.362 105.028 180.529 107.498L-223.067 377.206C-230.551 382.146 -241.686 381.42 -247.893 375.534L-587.599 54.9661C-590.429 52.2777 -591.889 48.8628 -591.706 45.3026ZM184.727 97.3985C184.91 94.2742 183.632 91.2952 181.076 88.8975L-158.539 -231.671C-161.186 -234.214 -165.019 -235.74 -169.127 -236.03C-173.234 -236.321 -177.341 -235.304 -180.535 -233.196L-584.131 36.4383C-587.417 38.6907 -589.516 41.8876 -589.698 45.3752C-589.881 48.4995 -588.603 51.4785 -586.048 53.8762L-246.341 374.372C-240.773 379.603 -230.916 380.257 -224.345 375.898L179.251 106.263C182.537 104.083 184.544 100.813 184.727 97.3985Z" fill="#FFF8F0"/>
<path d="M-595.266 25.4669C-595.084 21.5433 -592.71 17.8377 -588.786 15.3674L-188.567 -236.829C-185.008 -239.082 -180.535 -240.099 -175.972 -239.663C-171.408 -239.227 -167.393 -237.483 -164.472 -234.577L153.239 83.2302C155.794 85.7732 157.072 88.9702 156.981 92.2398C156.798 96.1634 154.425 99.8689 150.501 102.339L-249.809 354.536C-257.202 359.186 -267.972 358.242 -273.905 352.356L-591.615 34.4765C-594.171 31.9334 -595.449 28.7365 -595.266 25.4669ZM154.79 92.1671C154.973 89.2608 153.786 86.4998 151.505 84.2474L-166.115 -233.56C-168.579 -236.03 -172.23 -237.629 -176.154 -237.992C-180.17 -238.355 -184.095 -237.483 -187.198 -235.449L-587.508 16.6752C-590.885 18.8549 -592.984 22.0519 -593.167 25.5395C-593.349 28.3732 -592.163 31.2068 -589.881 33.4593L-272.17 351.266C-266.968 356.425 -257.476 357.297 -250.996 353.228L149.223 101.031C152.509 98.8517 154.608 95.6547 154.79 92.1671Z" fill="#FFF8F0"/>
<path d="M-598.826 5.55867C-598.643 1.56245 -596.179 -2.07045 -592.163 -4.46817L-195.322 -239.227C-187.929 -243.587 -177.524 -242.351 -172.048 -236.539L123.667 78.5802C125.949 80.9779 127.135 84.0296 126.953 87.0086C126.77 91.0048 124.306 94.6377 120.29 97.0354L-276.552 331.867C-283.945 336.226 -294.349 334.991 -299.826 329.179L-595.54 14.0597C-597.822 11.5893 -599.008 8.61031 -598.826 5.55867ZM124.853 87.0086C125.036 84.3929 123.941 81.7045 122.024 79.5974L-173.691 -235.521C-178.528 -240.608 -187.655 -241.697 -194.044 -237.919L-590.885 -3.16032C-594.445 -1.05324 -596.544 2.14374 -596.727 5.63133C-596.909 8.24702 -595.814 10.9354 -593.897 13.0425L-298.183 328.161C-293.345 333.247 -284.218 334.337 -277.83 330.559L119.012 95.8002C122.572 93.6931 124.671 90.4962 124.853 87.0086Z" fill="#FFF8F0"/>
<path d="M-602.477 -14.2769C-602.294 -18.2731 -599.739 -21.906 -595.54 -24.2311L-202.075 -241.552C-194.774 -245.548 -184.734 -244.168 -179.623 -238.355L94.1868 74.0756C96.1947 76.4006 97.1987 79.089 97.0161 81.9226C96.8336 85.9188 94.278 89.5518 90.0796 91.8768L-303.294 309.198C-310.595 313.194 -320.635 311.813 -325.746 306.001L-599.556 -6.42982C-601.564 -8.75488 -602.568 -11.5159 -602.477 -14.2769ZM94.9169 81.85C95.0082 79.3796 94.1867 77.0545 92.4526 75.0201L-181.357 -237.41C-185.829 -242.496 -194.591 -243.732 -200.889 -240.171L-594.354 -22.9232C-598.004 -20.8888 -600.195 -17.7645 -600.378 -14.2042C-600.469 -11.7339 -599.647 -9.4088 -597.913 -7.37436L-324.103 305.056C-319.631 310.142 -310.869 311.377 -304.48 307.817L88.9844 90.4963C92.5439 88.5345 94.7344 85.3376 94.9169 81.85Z" fill="#FFF8F0"/>
<path d="M-606.036 -34.1854C-605.854 -38.1816 -603.115 -41.8872 -598.917 -44.0669L-208.829 -243.95C-201.619 -247.655 -191.853 -245.984 -187.198 -240.244L64.6154 69.4979C66.3495 71.6777 67.2621 74.2207 67.0797 76.7637C66.8971 80.7599 64.159 84.4655 59.9606 86.6453L-330.036 286.528C-337.246 290.234 -347.012 288.562 -351.667 282.823L-603.572 -26.9196C-605.306 -29.0993 -606.219 -31.6424 -606.036 -34.1854ZM65.0717 76.6911C65.163 74.4387 64.4328 72.2589 62.8812 70.3698L-188.932 -239.372C-193.04 -244.386 -201.436 -245.839 -207.734 -242.569L-597.731 -42.6864C-601.381 -40.7973 -603.754 -37.6004 -603.937 -34.1128C-604.028 -31.8604 -603.298 -29.6806 -601.746 -27.7915L-349.933 281.951C-345.826 286.964 -337.429 288.417 -331.131 285.148L58.8654 85.2648C62.5161 83.3756 64.8892 80.1787 65.0717 76.6911Z" fill="#FFF8F0"/>
<path d="M-609.687 -54.0939C-609.504 -58.1627 -606.675 -61.8683 -602.294 -63.9754L-215.583 -246.348C-208.373 -249.763 -199.063 -247.873 -194.774 -242.133L35.1354 64.9204C36.687 66.9548 37.4172 69.2798 37.2346 71.6049C37.0521 75.6738 34.2227 79.3793 29.8418 81.4865L-356.869 263.859C-364.079 267.274 -373.389 265.384 -377.679 259.644L-607.496 -47.4093C-609.048 -49.4437 -609.778 -51.6961 -609.687 -54.0939ZM35.1354 71.4596C35.2267 69.4252 34.5878 67.4634 33.31 65.7196L-196.508 -241.334C-200.25 -246.275 -208.282 -247.873 -214.488 -244.967L-601.199 -62.5222C-605.032 -60.7057 -607.405 -57.5088 -607.588 -54.0212C-607.679 -51.9868 -607.04 -50.025 -605.762 -48.2812L-375.853 258.773C-372.111 263.713 -364.079 265.312 -357.873 262.406L28.7465 79.9606C32.5798 78.2168 34.9529 75.0199 35.1354 71.4596Z" fill="#FFF8F0"/>
<path d="M-613.338 -73.9296C-613.156 -77.9985 -610.144 -81.7767 -605.58 -83.7385L-222.338 -248.745C-215.219 -251.797 -206.183 -249.69 -202.35 -244.023L5.56335 60.2702C6.84113 62.1593 7.48004 64.2664 7.29749 66.3735C7.11493 70.4424 4.10303 74.2206 -0.460449 76.1824L-383.612 241.189C-390.731 244.241 -399.766 242.134 -403.6 236.466L-611.513 -67.8263C-612.79 -69.7154 -613.429 -71.8225 -613.338 -73.9296ZM5.28955 66.3008C5.3808 64.4844 4.83319 62.6679 3.73792 61.0694L-204.175 -243.223C-207.552 -248.091 -215.219 -249.908 -221.425 -247.292L-604.576 -82.2853C-608.501 -80.6142 -611.056 -77.4172 -611.239 -73.8569C-611.33 -72.0405 -610.783 -70.224 -609.687 -68.6256L-401.774 235.667C-398.397 240.535 -390.731 242.352 -384.524 239.736L-1.28192 74.7292C2.6427 73.0581 5.10699 69.8611 5.28955 66.3008Z" fill="#FFF8F0"/>
</g>
</svg>
