<svg width="41" height="40" viewBox="0 0 41 40" fill="none" xmlns="http://www.w3.org/2000/svg">
<g clip-path="url(#clip0_202_218)">
<path d="M20.5 40.0005C31.5457 40.0005 40.5 31.0462 40.5 20.0005C40.5 8.95479 31.5457 0.000488281 20.5 0.000488281C9.4543 0.000488281 0.5 8.95479 0.5 20.0005C0.5 31.0462 9.4543 40.0005 20.5 40.0005Z" fill="#32BA7C"/>
<path d="M15.3896 29.0225L25.6736 39.3064C34.1909 37.0351 40.5001 29.2749 40.5001 20.0004C40.5001 19.8111 40.5001 19.6219 40.5001 19.4326L32.4243 11.9878L15.3896 29.0225Z" fill="#0AA06E"/>
<path d="M21.0047 24.4804C21.888 25.3636 21.888 26.8778 21.0047 27.7611L19.1751 29.5908C18.2918 30.4741 16.7776 30.4741 15.8943 29.5908L7.8817 21.5151C6.99842 20.6318 6.99842 19.1176 7.8817 18.2343L9.71135 16.4046C10.5946 15.5214 12.1088 15.5214 12.9921 16.4046L21.0047 24.4804Z" fill="white"/>
<path d="M28.0079 10.537C28.8912 9.65369 30.4054 9.65369 31.2887 10.537L33.1183 12.3666C34.0016 13.2499 34.0016 14.7641 33.1183 15.6474L19.2382 29.4644C18.3549 30.3477 16.8407 30.3477 15.9574 29.4644L14.1278 27.6348C13.2445 26.7515 13.2445 25.2373 14.1278 24.354L28.0079 10.537Z" fill="white"/>
</g>
<defs>
<clipPath id="clip0_202_218">
<rect width="40" height="40" fill="white" transform="translate(0.5 0.000488281)"/>
</clipPath>
</defs>
</svg>
