<svg width="20" height="20" viewBox="0 0 20 20" fill="none" xmlns="http://www.w3.org/2000/svg">
<g clip-path="url(#clip0_202_237)">
<path d="M6.875 11.8892C6.97 13.0817 7.9125 14.0105 9.6025 14.1205V15.0005H10.3525V14.1142C12.1025 13.9917 13.125 13.0567 13.125 11.6992C13.125 10.4655 12.3425 9.82924 10.9438 9.49924L10.3525 9.35924V6.96299C11.1025 7.04799 11.58 7.45799 11.695 8.02549H13.01C12.915 6.87674 11.93 5.97799 10.3525 5.88049V5.00049H9.6025V5.89924C8.10875 6.04549 7.09 6.94424 7.09 8.21549C7.09 9.34049 7.8475 10.0555 9.10625 10.3492L9.6025 10.4717V13.0142C8.83375 12.898 8.325 12.4767 8.21 11.8892H6.875ZM9.59625 9.18174C8.85875 9.01049 8.45875 8.66174 8.45875 8.13674C8.45875 7.54924 8.89 7.10924 9.6025 6.98049V9.18049L9.59625 9.18174ZM10.4613 10.673C11.3575 10.8805 11.7712 11.2167 11.7712 11.8105C11.7712 12.488 11.2562 12.953 10.3525 13.038V10.648L10.4613 10.673Z" fill="#252422"/>
<path d="M10 18.7505C7.67936 18.7505 5.45376 17.8286 3.81282 16.1877C2.17187 14.5467 1.25 12.3211 1.25 10.0005C1.25 7.67984 2.17187 5.45425 3.81282 3.8133C5.45376 2.17236 7.67936 1.25049 10 1.25049C12.3206 1.25049 14.5462 2.17236 16.1872 3.8133C17.8281 5.45425 18.75 7.67984 18.75 10.0005C18.75 12.3211 17.8281 14.5467 16.1872 16.1877C14.5462 17.8286 12.3206 18.7505 10 18.7505ZM10 20.0005C12.6522 20.0005 15.1957 18.9469 17.0711 17.0716C18.9464 15.1962 20 12.6527 20 10.0005C20 7.34832 18.9464 4.80478 17.0711 2.92942C15.1957 1.05406 12.6522 0.000488281 10 0.000488281C7.34784 0.000488281 4.8043 1.05406 2.92893 2.92942C1.05357 4.80478 0 7.34832 0 10.0005C0 12.6527 1.05357 15.1962 2.92893 17.0716C4.8043 18.9469 7.34784 20.0005 10 20.0005Z" fill="#252422"/>
<path d="M10 16.8755C8.17664 16.8755 6.42795 16.1512 5.13864 14.8618C3.84933 13.5725 3.125 11.8239 3.125 10.0005C3.125 8.17712 3.84933 6.42844 5.13864 5.13913C6.42795 3.84982 8.17664 3.12549 10 3.12549C11.8234 3.12549 13.572 3.84982 14.8614 5.13913C16.1507 6.42844 16.875 8.17712 16.875 10.0005C16.875 11.8239 16.1507 13.5725 14.8614 14.8618C13.572 16.1512 11.8234 16.8755 10 16.8755ZM10 17.5005C10.9849 17.5005 11.9602 17.3065 12.8701 16.9296C13.7801 16.5527 14.6069 16.0002 15.3033 15.3038C15.9997 14.6073 16.5522 13.7806 16.9291 12.8706C17.306 11.9607 17.5 10.9854 17.5 10.0005C17.5 9.01557 17.306 8.0403 16.9291 7.13036C16.5522 6.22042 15.9997 5.39363 15.3033 4.69719C14.6069 4.00075 13.7801 3.4483 12.8701 3.07139C11.9602 2.69448 10.9849 2.50049 10 2.50049C8.01088 2.50049 6.10322 3.29066 4.6967 4.69719C3.29018 6.10371 2.5 8.01136 2.5 10.0005C2.5 11.9896 3.29018 13.8973 4.6967 15.3038C6.10322 16.7103 8.01088 17.5005 10 17.5005Z" fill="#252422"/>
</g>
<defs>
<clipPath id="clip0_202_237">
<rect width="20" height="20" fill="white" transform="translate(0 0.000488281)"/>
</clipPath>
</defs>
</svg>
