<svg width="14" height="14" viewBox="0 0 14 14" fill="none" xmlns="http://www.w3.org/2000/svg">
<path d="M4.8125 6.125C4.69647 6.125 4.58519 6.17109 4.50314 6.25314C4.42109 6.33519 4.375 6.44647 4.375 6.5625C4.375 6.67853 4.42109 6.78981 4.50314 6.87186C4.58519 6.95391 4.69647 7 4.8125 7H9.1875C9.30353 7 9.41481 6.95391 9.49686 6.87186C9.57891 6.78981 9.625 6.67853 9.625 6.5625C9.625 6.44647 9.57891 6.33519 9.49686 6.25314C9.41481 6.17109 9.30353 6.125 9.1875 6.125H4.8125ZM4.375 8.3125C4.375 8.19647 4.42109 8.08519 4.50314 8.00314C4.58519 7.92109 4.69647 7.875 4.8125 7.875H9.1875C9.30353 7.875 9.41481 7.92109 9.49686 8.00314C9.57891 8.08519 9.625 8.19647 9.625 8.3125C9.625 8.42853 9.57891 8.53981 9.49686 8.62186C9.41481 8.70391 9.30353 8.75 9.1875 8.75H4.8125C4.69647 8.75 4.58519 8.70391 4.50314 8.62186C4.42109 8.53981 4.375 8.42853 4.375 8.3125ZM4.375 10.0625C4.375 9.94647 4.42109 9.83519 4.50314 9.75314C4.58519 9.67109 4.69647 9.625 4.8125 9.625H6.5625C6.67853 9.625 6.78981 9.67109 6.87186 9.75314C6.95391 9.83519 7 9.94647 7 10.0625C7 10.1785 6.95391 10.2898 6.87186 10.3719C6.78981 10.4539 6.67853 10.5 6.5625 10.5H4.8125C4.69647 10.5 4.58519 10.4539 4.50314 10.3719C4.42109 10.2898 4.375 10.1785 4.375 10.0625Z" fill="#5C5B5B"/>
<path d="M8.3125 0H3.5C3.03587 0 2.59075 0.184374 2.26256 0.512563C1.93437 0.840752 1.75 1.28587 1.75 1.75V12.25C1.75 12.7141 1.93437 13.1592 2.26256 13.4874C2.59075 13.8156 3.03587 14 3.5 14H10.5C10.9641 14 11.4092 13.8156 11.7374 13.4874C12.0656 13.1592 12.25 12.7141 12.25 12.25V3.9375L8.3125 0ZM8.3125 0.875V2.625C8.3125 2.9731 8.45078 3.30694 8.69692 3.55308C8.94306 3.79922 9.2769 3.9375 9.625 3.9375H11.375V12.25C11.375 12.4821 11.2828 12.7046 11.1187 12.8687C10.9546 13.0328 10.7321 13.125 10.5 13.125H3.5C3.26794 13.125 3.04538 13.0328 2.88128 12.8687C2.71719 12.7046 2.625 12.4821 2.625 12.25V1.75C2.625 1.51794 2.71719 1.29538 2.88128 1.13128C3.04538 0.967187 3.26794 0.875 3.5 0.875H8.3125Z" fill="#5C5B5B"/>
</svg>
