<svg width="20" height="20" viewBox="0 0 20 20" fill="none" xmlns="http://www.w3.org/2000/svg">
<g clip-path="url(#clip0_202_247)">
<path d="M5 20.0005C5 20.0005 3.75 20.0005 3.75 18.7505C3.75 17.5005 5 13.7505 10 13.7505C15 13.7505 16.25 17.5005 16.25 18.7505C16.25 20.0005 15 20.0005 15 20.0005H5ZM10 12.563C10.8288 12.563 11.6237 12.2337 12.2097 11.6477C12.7958 11.0616 13.125 10.2668 13.125 9.43799C13.125 8.60919 12.7958 7.81433 12.2097 7.22828C11.6237 6.64223 10.8288 6.31299 10 6.31299C9.1712 6.31299 8.37634 6.64223 7.79029 7.22828C7.20424 7.81433 6.875 8.60919 6.875 9.43799C6.875 10.2668 7.20424 11.0616 7.79029 11.6477C8.37634 12.2337 9.1712 12.563 10 12.563Z" fill="#252422"/>
<path d="M2.5 1.25049C1.83696 1.25049 1.20107 1.51388 0.732233 1.98272C0.263392 2.45156 0 3.08745 0 3.75049L0 15.6255C0 16.1228 0.197544 16.5997 0.549175 16.9513C0.900805 17.3029 1.37772 17.5005 1.875 17.5005H2.69125C2.95261 16.5819 3.40688 15.7296 4.02375 15.0005H1.25V3.75049C1.25 3.41897 1.3817 3.10103 1.61612 2.8666C1.85054 2.63218 2.16848 2.50049 2.5 2.50049H17.5C17.8315 2.50049 18.1495 2.63218 18.3839 2.8666C18.6183 3.10103 18.75 3.41897 18.75 3.75049V15.0005H15.9762C16.6688 15.818 17.0888 16.7167 17.3088 17.5005H18.125C18.6223 17.5005 19.0992 17.3029 19.4508 16.9513C19.8025 16.5997 20 16.1228 20 15.6255V3.75049C20 3.08745 19.7366 2.45156 19.2678 1.98272C18.7989 1.51388 18.163 1.25049 17.5 1.25049H2.5Z" fill="#252422"/>
</g>
<defs>
<clipPath id="clip0_202_247">
<rect width="20" height="20" fill="white" transform="translate(0 0.000488281)"/>
</clipPath>
</defs>
</svg>
