<svg width="111" height="18" viewBox="0 0 111 18" fill="none" xmlns="http://www.w3.org/2000/svg">
<path d="M17.5485 6.4337L12.0067 5.58719L9.52279 0.296316C9.33726 -0.0987721 8.68905 -0.0987721 8.50352 0.296316L6.02033 5.58719L0.478574 6.4337C0.0233967 6.50356 -0.158374 7.05713 0.160851 7.38387L4.18685 11.5105L3.23518 17.3445C3.15932 17.8079 3.6543 18.1557 4.06366 17.9281L9.01353 15.1925L13.9634 17.9288C14.369 18.1542 14.8685 17.8132 14.7919 17.3452L13.8402 11.5113L17.8662 7.38462C18.1854 7.05713 18.0029 6.50356 17.5485 6.4337Z" fill="#FFC107"/>
<path d="M40.5753 6.4337L35.0336 5.58719L32.5496 0.296316C32.3641 -0.0987721 31.7159 -0.0987721 31.5304 0.296316L29.0472 5.58719L23.5054 6.4337C23.0503 6.50356 22.8685 7.05713 23.1877 7.38387L27.2137 11.5105L26.262 17.3445C26.1862 17.8079 26.6812 18.1557 27.0905 17.9281L32.0404 15.1925L36.9903 17.9288C37.3959 18.1542 37.8954 17.8132 37.8187 17.3452L36.8671 11.5113L40.8931 7.38462C41.2123 7.05713 41.0298 6.50356 40.5753 6.4337Z" fill="#FFC107"/>
<path d="M63.6022 6.4337L58.0604 5.58719L55.5765 0.296316C55.391 -0.0987721 54.7428 -0.0987721 54.5572 0.296316L52.074 5.58719L46.5323 6.4337C46.0771 6.50356 45.8953 7.05713 46.2146 7.38387L50.2406 11.5105L49.2889 17.3445C49.213 17.8079 49.708 18.1557 50.1174 17.9281L55.0672 15.1925L60.0171 17.9288C60.4227 18.1542 60.9222 17.8132 60.8456 17.3452L59.8939 11.5113L63.9199 7.38462C64.2391 7.05713 64.0566 6.50356 63.6022 6.4337Z" fill="#FFC107"/>
<path d="M86.6291 6.4337L81.0873 5.58719L78.6034 0.296316C78.4178 -0.0987721 77.7696 -0.0987721 77.5841 0.296316L75.1009 5.58719L69.5591 6.4337C69.104 6.50356 68.9222 7.05713 69.2414 7.38387L73.2674 11.5105L72.3157 17.3445C72.2399 17.8079 72.7349 18.1557 73.1442 17.9281L78.0941 15.1925L83.044 17.9288C83.4496 18.1542 83.9491 17.8132 83.8725 17.3452L82.9208 11.5113L86.9468 7.38462C87.266 7.05713 87.0835 6.50356 86.6291 6.4337Z" fill="#FFC107"/>
<path d="M109.656 6.4337L104.114 5.58719L101.63 0.296316C101.445 -0.0987721 100.796 -0.0987721 100.611 0.296316L98.1277 5.58719L92.586 6.4337C92.1308 6.50356 91.949 7.05713 92.2683 7.38387L96.2943 11.5105L95.3426 17.3445C95.2667 17.8079 95.7617 18.1557 96.1711 17.9281L101.121 15.1925L106.071 17.9288C106.476 18.1542 106.976 17.8132 106.899 17.3452L105.948 11.5113L109.974 7.38462C110.293 7.05713 110.11 6.50356 109.656 6.4337Z" fill="#FFC107"/>
</svg>
