<svg width="106" height="141" viewBox="0 0 106 141" fill="none" xmlns="http://www.w3.org/2000/svg">
<g clip-path="url(#clip0_202_751)">
<path d="M46.5151 141C51.0045 140.688 54.9327 137.508 54.808 132.706C54.6833 128.153 50.2563 124.973 45.8916 125.534C37.0998 126.719 36.9751 141.062 46.5151 141C48.7598 141 48.7598 137.445 46.5151 137.508C41.5269 137.57 41.5892 130.149 45.9539 129.089C48.3233 128.528 51.0045 130.024 51.2539 132.519C51.5657 135.387 49.1339 137.258 46.5151 137.445C44.2704 137.632 44.2704 141.187 46.5151 141Z" fill="#252422"/>
<path d="M2.24475 110.131C6.17298 120.234 23.133 113.062 18.8306 102.897C14.653 92.7943 -0.62349 100.901 2.24475 110.131C2.93063 112.251 6.29769 111.378 5.6118 109.196C4.11533 104.394 12.2836 98.4693 15.3389 103.645C16.6483 105.89 15.9624 108.759 13.8424 110.256C11.7224 111.752 6.85886 112.251 5.6118 109.196C4.86357 107.075 1.43416 108.011 2.24475 110.131Z" fill="#252422"/>
<path d="M50.194 107.449C58.7987 112.875 69.0869 96.5984 58.4869 92.6072C50.0693 89.4268 42.6493 102.149 50.194 107.449C52.0646 108.759 53.8105 105.703 51.9399 104.394C48.074 101.712 52.4387 94.7275 56.554 95.663C63.4128 97.222 56.7411 107.387 51.9399 104.394C50.0069 103.209 48.2611 106.264 50.194 107.449Z" fill="#252422"/>
<path d="M94.7765 118.487C104.005 121.231 111.425 104.019 100.762 102.086C91.2224 100.403 84.3636 114.933 94.7765 118.487C96.8965 119.236 97.8318 115.806 95.7118 115.12C89.7259 113.062 94.7141 104.955 99.7024 105.516C105.938 106.202 100.7 116.617 95.7118 115.12C93.5294 114.434 92.5941 117.864 94.7765 118.487Z" fill="#252422"/>
<path d="M74.886 58.4954C73.5143 62.5489 75.8213 66.6648 80.1237 67.226C84.0519 67.7249 89.2896 64.8563 90.4743 60.8651C91.5966 57.0611 88.3543 54.0053 84.8625 53.4441C80.9343 52.7581 76.8813 54.3795 75.1354 58.0588C74.1378 60.1168 77.1931 61.8629 78.1907 59.805C79.0637 57.9965 80.4978 56.9363 82.5554 56.8116C84.0519 56.6869 86.6707 57.1234 87.1696 58.9319C88.4166 63.422 75.8837 66.7271 78.3154 59.4308C79.0013 57.2481 75.5719 56.3751 74.886 58.4954Z" fill="#252422"/>
<path d="M38.3468 71.4666C42.1504 70.843 45.1433 67.8496 45.7045 64.0455C46.2033 60.5533 44.3327 57.2481 40.7786 56.375C35.8527 55.1902 30.7398 58.8072 29.368 63.5467C27.7468 68.9721 33.1715 72.0279 37.9104 71.529C40.1551 71.2795 40.1551 67.7873 37.9104 68.0367C34.5433 68.4109 31.2386 66.7895 33.4833 63.1101C34.9174 60.7404 38.2845 58.4953 41.028 60.2415C42.4621 61.1145 42.5868 63.0478 42.088 64.4821C41.3398 66.6024 39.5939 67.7249 37.4739 68.0991C35.1668 68.4732 36.1021 71.8408 38.3468 71.4666Z" fill="#252422"/>
<path d="M0.186871 7.48341C-0.997835 11.8487 2.86805 15.7152 7.10805 15.8399C11.4728 15.9646 16.5857 12.0982 16.9598 7.54577C17.3963 3.11808 13.1563 -0.187091 9.04099 -5.36349e-06C4.73864 0.18708 1.43393 3.55462 0.186871 7.48341C-0.499011 9.66607 2.9304 10.6015 3.55393 8.41884C4.17746 6.42326 5.48687 4.61477 7.54452 3.86642C9.53981 3.11808 12.2833 3.67934 13.1563 5.862C14.2163 8.41884 11.348 11.2251 9.10334 12.0358C6.79628 12.8465 2.74334 11.5993 3.55393 8.4812C4.17746 6.23617 0.8104 5.30075 0.186871 7.48341Z" fill="#252422"/>
</g>
<defs>
<clipPath id="clip0_202_751">
<rect width="106" height="141" fill="white"/>
</clipPath>
</defs>
</svg>
