<svg width="17" height="17" viewBox="0 0 17 17" fill="none" xmlns="http://www.w3.org/2000/svg">
<g clip-path="url(#clip0_202_519)">
<path d="M8.5 4C8.5 3.86739 8.44732 3.74021 8.35355 3.64645C8.25979 3.55268 8.13261 3.5 8 3.5C7.86739 3.5 7.74021 3.55268 7.64645 3.64645C7.55268 3.74021 7.5 3.86739 7.5 4V9.5C7.50003 9.58813 7.52335 9.67469 7.56761 9.75091C7.61186 9.82712 7.67547 9.89029 7.752 9.934L11.252 11.934C11.3669 11.9961 11.5014 12.0108 11.627 11.9749C11.7525 11.9391 11.8591 11.8556 11.9238 11.7422C11.9886 11.6288 12.0065 11.4946 11.9736 11.3683C11.9408 11.2419 11.8598 11.1334 11.748 11.066L8.5 9.21V4Z" fill="#5C5B5B"/>
<path d="M8.5 16.5C10.6217 16.5 12.6566 15.6571 14.1569 14.1569C15.6571 12.6566 16.5 10.6217 16.5 8.5C16.5 6.37827 15.6571 4.34344 14.1569 2.84315C12.6566 1.34285 10.6217 0.5 8.5 0.5C6.37827 0.5 4.34344 1.34285 2.84315 2.84315C1.34285 4.34344 0.5 6.37827 0.5 8.5C0.5 10.6217 1.34285 12.6566 2.84315 14.1569C4.34344 15.6571 6.37827 16.5 8.5 16.5ZM15.5 8.5C15.5 10.3565 14.7625 12.137 13.4497 13.4497C12.137 14.7625 10.3565 15.5 8.5 15.5C6.64348 15.5 4.86301 14.7625 3.55025 13.4497C2.2375 12.137 1.5 10.3565 1.5 8.5C1.5 6.64348 2.2375 4.86301 3.55025 3.55025C4.86301 2.2375 6.64348 1.5 8.5 1.5C10.3565 1.5 12.137 2.2375 13.4497 3.55025C14.7625 4.86301 15.5 6.64348 15.5 8.5Z" fill="#5C5B5B"/>
</g>
<defs>
<clipPath id="clip0_202_519">
<rect width="16" height="16" fill="white" transform="translate(0.5 0.5)"/>
</clipPath>
</defs>
</svg>
