<svg width="105" height="14" viewBox="0 0 105 14" fill="none" xmlns="http://www.w3.org/2000/svg">
<path d="M16.0154 1.7669C15.4069 0.967351 14.5472 0.395567 13.5746 0.143398C12.602 -0.108771 11.5728 -0.0266871 10.6525 0.376464C9.8287 0.731948 9.094 1.33129 8.49816 2.12666C7.90232 1.32935 7.16763 0.730003 6.34387 0.376464C5.4235 -0.0266871 4.39434 -0.108771 3.42171 0.143398C2.44907 0.395567 1.58943 0.967351 0.980886 1.7669C0.339149 2.60777 0 3.65866 0 4.80562C0 6.45625 0.984387 8.26711 2.92555 10.19C4.50733 11.7562 6.37654 13.0389 7.34965 13.6639C7.69252 13.8834 8.09108 14 8.49816 14C8.90524 14 9.30381 13.8834 9.64668 13.6639C10.619 13.0389 12.489 11.7562 14.0708 10.19C16.0119 8.26789 16.9963 6.45625 16.9963 4.80562C16.9963 3.65866 16.6572 2.60777 16.0154 1.7669Z" fill="#F9595F"/>
<path d="M38.0115 1.7669C37.403 0.967351 36.5433 0.395567 35.5707 0.143398C34.5981 -0.108771 33.5689 -0.0266871 32.6485 0.376464C31.8248 0.731948 31.0901 1.33129 30.4943 2.12666C29.8984 1.32935 29.1637 0.730003 28.34 0.376464C27.4196 -0.0266871 26.3904 -0.108771 25.4178 0.143398C24.4452 0.395567 23.5855 0.967351 22.977 1.7669C22.3352 2.60777 21.9961 3.65866 21.9961 4.80562C21.9961 6.45625 22.9805 8.26711 24.9216 10.19C26.5034 11.7562 28.3726 13.0389 29.3457 13.6639C29.6886 13.8834 30.0872 14 30.4943 14C30.9013 14 31.2999 13.8834 31.6428 13.6639C32.6151 13.0389 34.4851 11.7562 36.0669 10.19C38.008 8.26789 38.9924 6.45625 38.9924 4.80562C38.9924 3.65866 38.6533 2.60777 38.0115 1.7669Z" fill="#F9595F"/>
<path d="M60.0081 1.7669C59.3996 0.967351 58.5399 0.395567 57.5673 0.143398C56.5947 -0.108771 55.5655 -0.0266871 54.6451 0.376464C53.8214 0.731948 53.0867 1.33129 52.4908 2.12666C51.895 1.32935 51.1603 0.730003 50.3365 0.376464C49.4162 -0.0266871 48.387 -0.108771 47.4144 0.143398C46.4418 0.395567 45.5821 0.967351 44.9736 1.7669C44.3318 2.60777 43.9927 3.65866 43.9927 4.80562C43.9927 6.45625 44.9771 8.26711 46.9182 10.19C48.5 11.7562 50.3692 13.0389 51.3423 13.6639C51.6852 13.8834 52.0838 14 52.4908 14C52.8979 14 53.2965 13.8834 53.6394 13.6639C54.6117 13.0389 56.4817 11.7562 58.0635 10.19C60.0046 8.26789 60.989 6.45625 60.989 4.80562C60.989 3.65866 60.6498 2.60777 60.0081 1.7669Z" fill="#F9595F"/>
<path d="M82.0042 1.7669C81.3957 0.967351 80.536 0.395567 79.5634 0.143398C78.5908 -0.108771 77.5616 -0.0266871 76.6412 0.376464C75.8175 0.731948 75.0828 1.33129 74.4869 2.12666C73.8911 1.32935 73.1564 0.730003 72.3326 0.376464C71.4123 -0.0266871 70.3831 -0.108771 69.4105 0.143398C68.4378 0.395567 67.5782 0.967351 66.9697 1.7669C66.3279 2.60777 65.9888 3.65866 65.9888 4.80562C65.9888 6.45625 66.9732 8.26711 68.9143 10.19C70.4961 11.7562 72.3653 13.0389 73.3384 13.6639C73.6813 13.8834 74.0798 14 74.4869 14C74.894 14 75.2926 13.8834 75.6354 13.6639C76.6078 13.0389 78.4778 11.7562 80.0595 10.19C82.0007 8.26789 82.9851 6.45625 82.9851 4.80562C82.9851 3.65866 82.6459 2.60777 82.0042 1.7669Z" fill="#F9595F"/>
<path d="M104.001 1.7669C103.392 0.967351 102.533 0.395567 101.56 0.143398C100.587 -0.108771 99.5582 -0.0266871 98.6378 0.376464C97.814 0.731948 97.0794 1.33129 96.4835 2.12666C95.8877 1.32935 95.153 0.730003 94.3292 0.376464C93.4089 -0.0266871 92.3797 -0.108771 91.4071 0.143398C90.4344 0.395567 89.5748 0.967351 88.9662 1.7669C88.3245 2.60777 87.9854 3.65866 87.9854 4.80562C87.9854 6.45625 88.9697 8.26711 90.9109 10.19C92.4927 11.7562 94.3619 13.0389 95.335 13.6639C95.6779 13.8834 96.0764 14 96.4835 14C96.8906 14 97.2892 13.8834 97.632 13.6639C98.6044 13.0389 100.474 11.7562 102.056 10.19C103.997 8.26789 104.982 6.45625 104.982 4.80562C104.982 3.65866 104.643 2.60777 104.001 1.7669Z" fill="#F9595F"/>
</svg>
