<svg width="19" height="19" viewBox="0 0 19 19" fill="none" xmlns="http://www.w3.org/2000/svg">
<g clip-path="url(#clip0_202_525)">
<path d="M17.375 16.25C17.375 16.25 18.5 16.25 18.5 15.125C18.5 14 17.375 10.625 12.875 10.625C8.375 10.625 7.25 14 7.25 15.125C7.25 16.25 8.375 16.25 8.375 16.25H17.375ZM8.39975 15.125C8.39144 15.1239 8.38318 15.1224 8.375 15.1205C8.37612 14.8235 8.56287 13.9618 9.23 13.1855C9.851 12.4576 10.9423 11.75 12.875 11.75C14.8066 11.75 15.8979 12.4587 16.52 13.1855C17.1871 13.9618 17.3727 14.8246 17.375 15.1205L17.366 15.1228C17.3608 15.1236 17.3555 15.1244 17.3503 15.125H8.39975ZM12.875 8.375C13.4717 8.375 14.044 8.13795 14.466 7.71599C14.8879 7.29403 15.125 6.72174 15.125 6.125C15.125 5.52826 14.8879 4.95597 14.466 4.53401C14.044 4.11205 13.4717 3.875 12.875 3.875C12.2783 3.875 11.706 4.11205 11.284 4.53401C10.8621 4.95597 10.625 5.52826 10.625 6.125C10.625 6.72174 10.8621 7.29403 11.284 7.71599C11.706 8.13795 12.2783 8.375 12.875 8.375ZM16.25 6.125C16.25 6.56821 16.1627 7.00708 15.9931 7.41656C15.8235 7.82603 15.5749 8.19809 15.2615 8.51149C14.9481 8.82488 14.576 9.07348 14.1666 9.24309C13.7571 9.4127 13.3182 9.5 12.875 9.5C12.4318 9.5 11.9929 9.4127 11.5834 9.24309C11.174 9.07348 10.8019 8.82488 10.4885 8.51149C10.1751 8.19809 9.92652 7.82603 9.75691 7.41656C9.5873 7.00708 9.5 6.56821 9.5 6.125C9.5 5.22989 9.85558 4.37145 10.4885 3.73851C11.1214 3.10558 11.9799 2.75 12.875 2.75C13.7701 2.75 14.6286 3.10558 15.2615 3.73851C15.8944 4.37145 16.25 5.22989 16.25 6.125ZM8.303 10.94C7.85298 10.7983 7.38909 10.7051 6.91925 10.6621C6.65525 10.637 6.39019 10.6246 6.125 10.625C1.625 10.625 0.5 14 0.5 15.125C0.5 15.8754 0.874625 16.25 1.625 16.25H6.368C6.20122 15.8988 6.11805 15.5137 6.125 15.125C6.125 13.9888 6.54913 12.8277 7.35125 11.858C7.62463 11.5272 7.943 11.2179 8.303 10.94ZM6.035 11.75C5.36917 12.7504 5.0095 13.9233 5 15.125H1.625C1.625 14.8325 1.8095 13.9663 2.48 13.1855C3.09313 12.47 4.1585 11.7725 6.035 11.7511V11.75ZM2.1875 6.6875C2.1875 5.79239 2.54308 4.93395 3.17601 4.30101C3.80895 3.66808 4.66739 3.3125 5.5625 3.3125C6.45761 3.3125 7.31605 3.66808 7.94899 4.30101C8.58192 4.93395 8.9375 5.79239 8.9375 6.6875C8.9375 7.58261 8.58192 8.44105 7.94899 9.07399C7.31605 9.70692 6.45761 10.0625 5.5625 10.0625C4.66739 10.0625 3.80895 9.70692 3.17601 9.07399C2.54308 8.44105 2.1875 7.58261 2.1875 6.6875ZM5.5625 4.4375C4.96576 4.4375 4.39347 4.67455 3.97151 5.09651C3.54955 5.51847 3.3125 6.09076 3.3125 6.6875C3.3125 7.28424 3.54955 7.85653 3.97151 8.27849C4.39347 8.70045 4.96576 8.9375 5.5625 8.9375C6.15924 8.9375 6.73153 8.70045 7.15349 8.27849C7.57545 7.85653 7.8125 7.28424 7.8125 6.6875C7.8125 6.09076 7.57545 5.51847 7.15349 5.09651C6.73153 4.67455 6.15924 4.4375 5.5625 4.4375Z" fill="#5C5B5B"/>
</g>
<defs>
<clipPath id="clip0_202_525">
<rect width="18" height="18" fill="white" transform="translate(0.5 0.5)"/>
</clipPath>
</defs>
</svg>
