<svg width="137" height="128" viewBox="0 0 137 128" fill="none" xmlns="http://www.w3.org/2000/svg">
<g clip-path="url(#clip0_202_742)">
<path d="M98.6988 30.2067C89.1613 34.2656 80.3302 40.5889 72.4138 47.1039C53.5356 62.734 39.2348 83.128 31.164 106.319C30.3812 108.621 26.8358 107.292 27.6185 104.99C35.779 81.5127 50.2355 60.8215 69.2588 44.8282C77.5745 37.8407 87.0142 31.0791 97.1156 26.7249C99.3478 25.8198 100.92 29.2353 98.6988 30.2067Z" fill="#6DB7FD"/>
<path d="M88.91 31.4517C100.261 33.5558 111.757 35.2966 123.21 36.7725C125.437 37.0916 125.291 39.9697 123.336 40.4901C107.423 44.6298 92.4449 54.1233 78.7161 62.9387C75.8285 64.8335 73.2046 64.5787 69.6964 64.7389C64.2354 65.0114 58.7744 65.2839 53.3134 65.5565C52.0998 65.617 51.0225 64.8399 51.1392 63.4618C51.7043 58.137 52.2032 52.8229 52.7683 47.4982C53.1272 43.838 52.5809 37.9455 54.7242 34.812C58.255 29.7546 64.5404 25.3387 69.3006 21.5775C78.6779 14.0104 88.9445 7.31871 100.193 2.91476C102.304 2.0973 103.66 4.59631 102.208 6.12273C95.3365 13.2162 91.373 23.5768 90.5884 33.4228C90.4339 35.8266 86.6305 35.4229 86.8512 33.0084C87.6737 22.1369 92.1923 11.0067 99.828 3.17779C100.474 4.22861 101.12 5.27943 101.843 6.38575C90.8374 10.6144 80.8805 17.1199 71.7467 24.5117C66.6982 28.5914 62.3511 33.645 57.292 37.6585C56.8712 37.9985 57.3765 36.0816 57.6805 37.1198C57.8432 37.7052 57.5064 38.9831 57.4042 39.6113C57.0473 42.8634 56.7565 46.1048 56.3995 49.357C55.8918 54.1967 55.3841 59.0364 54.8871 63.9424C54.1624 63.2441 53.4376 62.5459 52.7129 61.8477C58.1739 61.5751 63.6349 61.3026 69.0959 61.0301C71.1812 60.8964 73.3648 60.9506 75.4286 60.6844C74.6339 60.8131 74.4995 61.2426 75.4072 60.552C76.2038 60.0152 77.0666 59.4677 77.874 58.9972C91.746 50.2265 106.624 40.9532 122.669 36.792C122.73 38.0056 122.735 39.2961 122.796 40.5097C111.332 38.9676 99.9021 37.216 88.4956 35.1889C86.1152 34.7588 86.5296 31.0216 88.91 31.4517Z" fill="#6DB7FD"/>
<path d="M45.8601 110.193L17.1289 95.6106L17.6078 127.952L45.8601 110.193Z" fill="#6DB7FD"/>
</g>
<defs>
<clipPath id="clip0_202_742">
<rect width="110.163" height="120.16" fill="white" transform="matrix(-0.15983 -0.987144 -0.987144 0.15983 136.223 108.747)"/>
</clipPath>
</defs>
</svg>
