<svg width="144" height="51" viewBox="0 0 144 51" fill="none" xmlns="http://www.w3.org/2000/svg">
<rect y="8" width="35" height="35" rx="2" fill="#89B592"/>
<path d="M27.405 13.08V17.315H13.755V23.195H26.11V27.255H13.755V33.765H27.335V38H9.03V13.08H27.405Z" fill="#FFF8F0"/>
<path d="M51.665 23.285V14.08H56.075V39H51.805V36.48C50.475 38.44 48.5733 39.42 46.1 39.42C43.6033 39.42 41.6317 38.5567 40.185 36.83C38.715 35.1033 37.98 32.8167 37.98 29.97C37.98 27.0767 38.715 24.7783 40.185 23.075C41.6083 21.3717 43.58 20.52 46.1 20.52C48.5267 20.52 50.3817 21.4417 51.665 23.285ZM42.495 30.11C42.495 31.9767 42.9033 33.3883 43.72 34.345C44.5367 35.3017 45.6683 35.78 47.115 35.78C48.5617 35.78 49.705 35.2783 50.545 34.275C51.3617 33.2717 51.77 31.8367 51.77 29.97C51.77 28.1033 51.3617 26.6683 50.545 25.665C49.7283 24.6617 48.585 24.16 47.115 24.16C45.6917 24.16 44.56 24.685 43.72 25.735C42.9033 26.785 42.495 28.2433 42.495 30.11ZM71.4646 31.055V20.94H75.8746V39H71.6046V36.375C70.2279 38.405 68.3379 39.42 65.9346 39.42C63.9979 39.42 62.4579 38.86 61.3146 37.74C60.1946 36.5967 59.6346 34.9867 59.6346 32.91V20.94H64.0446V32.175C64.0446 34.4617 65.1763 35.605 67.4396 35.605C68.5596 35.605 69.5046 35.2083 70.2746 34.415C71.0679 33.5983 71.4646 32.4783 71.4646 31.055ZM84.1896 14.08V34.765H96.0546V39H79.4646V14.08H84.1896ZM102.769 18.595H98.4294V14.465H102.769V18.595ZM102.804 39H98.3944V20.94H102.804V39ZM116.263 20.52C118.223 20.52 119.763 21.0917 120.883 22.235C122.027 23.355 122.598 24.9533 122.598 27.03V39H118.188V27.765C118.188 25.4783 117.057 24.335 114.793 24.335C113.673 24.335 112.717 24.7433 111.923 25.56C111.153 26.3533 110.768 27.4617 110.768 28.885V39H106.358V20.94H110.628V23.53C112.005 21.5233 113.883 20.52 116.263 20.52ZM143.542 39H138.502L133.252 30.6L130.522 33.33V39H126.182V14.08H130.522V28.43L137.872 20.94H143.122L136.297 27.765L143.542 39Z" fill="#fff"/>
</svg>
