<svg width="50" height="50" viewBox="0 0 50 50" fill="none" xmlns="http://www.w3.org/2000/svg">
<path d="M9.42969 25.7811L49.2188 25.749C49.426 25.749 49.6247 25.6667 49.7712 25.5202C49.9177 25.3737 50 25.175 50 24.9678C50 24.7606 49.9177 24.5619 49.7712 24.4153C49.6247 24.2688 49.426 24.1865 49.2188 24.1865L9.42891 24.2186C9.22171 24.2186 9.02299 24.3009 8.87648 24.4474C8.72997 24.5939 8.64766 24.7926 8.64766 24.9998C8.64766 25.207 8.72997 25.4057 8.87648 25.5522C9.02299 25.6987 9.22249 25.7811 9.42969 25.7811Z" fill="#252422"/>
<path d="M1.90735e-06 25.0093C4.43828 26.6499 9.94609 29.4562 13.3594 32.4312L10.6672 24.9999L13.3492 17.5679C9.93907 20.5468 4.43594 23.3593 1.90735e-06 25.0093Z" fill="#252422"/>
</svg>
