<svg width="50" height="50" viewBox="0 0 50 50" fill="none" xmlns="http://www.w3.org/2000/svg">
<path d="M40.5703 25.7811L0.78125 25.749C0.57405 25.749 0.375336 25.6667 0.228823 25.5202C0.08231 25.3737 0 25.175 0 24.9678C0 24.7606 0.08231 24.5619 0.228823 24.4153C0.375336 24.2688 0.57405 24.1865 0.78125 24.1865L40.5711 24.2186C40.7783 24.2186 40.977 24.3009 41.1235 24.4474C41.27 24.5939 41.3523 24.7926 41.3523 24.9998C41.3523 25.207 41.27 25.4057 41.1235 25.5522C40.977 25.6987 40.7775 25.7811 40.5703 25.7811Z" fill="#252422"/>
<path d="M50 25.0093C45.5617 26.6499 40.0539 29.4562 36.6406 32.4312L39.3328 24.9999L36.6508 17.5679C40.0609 20.5468 45.5641 23.3593 50 25.0093Z" fill="#252422"/>
</svg>
