<svg width="50" height="50" viewBox="0 0 24 24" fill="none" xmlns="http://www.w3.org/2000/svg">
<path d="M14.8518 9.23439L15.069 9.37924C16.6364 10.4243 17.4201 10.9468 17.5618 11.6586C17.6067 11.8842 17.6067 12.1165 17.5618 12.3421C17.42 13.0538 16.6363 13.5763 15.0688 14.6212L11.8975 16.7351C9.99926 18.0005 9.05012 18.6332 8.27424 18.4138C8.03094 18.345 7.80544 18.2243 7.61325 18.06C7.00037 17.5361 7.00037 16.3954 7.00037 14.114L7.00037 9.8857C7.00037 7.60408 7.00037 6.46328 7.6133 5.93936C7.80551 5.77507 8.03103 5.65438 8.27434 5.5856C9.05027 5.36627 9.99945 5.99912 11.8978 7.26483L12.3525 7.56796" stroke="#252422" stroke-width="1.5" stroke-linecap="round" stroke-linejoin="round"></path>
</svg>