<svg id="Line" height="512" viewBox="0 0 64 64" width="512" xmlns="http://www.w3.org/2000/svg" fill="#252422"><path d="m22.85044 26.88908h-11.90057a1 1 0 0 0 0 2h11.90057a1.00021 1.00021 0 0 0 0-2z"/><path d="m22.85044 32.83937h-11.90057a1 1 0 0 0 0 2h11.90057a1.00021 1.00021 0 0 0 0-2z"/><path d="m22.85044 38.78966h-11.90057a1 1 0 0 0 0 2h11.90057a1.00021 1.00021 0 0 0 0-2z"/><path d="m22.85044 44.73994h-11.90057a1 1 0 0 0 0 2h11.90057a1.00021 1.00021 0 0 0 0-2z"/><path d="m34.74809 28.88374h3.9151a1 1 0 0 0 0-2h-3.9151a1.00021 1.00021 0 0 0 0 2z"/><path d="m34.74809 34.84672h2.00442a1.0002 1.0002 0 0 0 -.00006-2h-2.00436a1.0002 1.0002 0 0 0 0 2z"/><path d="m34.74809 40.79408h1.69729a1 1 0 1 0 0-2h-1.69729a1.0002 1.0002 0 0 0 0 2z"/><path d="m46.65159 44.73994h-11.90059a1 1 0 1 0 0 2h11.90059a1.00021 1.00021 0 0 0 0-2z"/><path d="m57.81534 7.70861a4.1406 4.1406 0 0 0 -6.0836 1.40639l-4.23 8.29953a27.9157 27.9157 0 0 0 -18.71177 1.84713 27.73784 27.73784 0 0 0 -24.23762.21229.99986.99986 0 0 0 -.55274.89454v35.70171a1.00791 1.00791 0 0 0 1.44731.89451 25.73194 25.73194 0 0 1 22.90658 0 1.00511 1.00511 0 0 0 .89454.00732 25.735 25.735 0 0 1 22.911 0 1.00769 1.00769 0 0 0 1.44727-.89457v-31.28408l5.95957-11.68335a4.0271 4.0271 0 0 0 -1.75054-5.40142zm-4.29987 2.31107a2.01965 2.01965 0 0 1 2.70464-.87792l.69043.35057a2.02359 2.02359 0 0 1 .87013 2.71586l-.95119 1.86481-4.27063-2.17655zm-1.80374 14.08616c-.03745.10507-5.54082 10.85192-5.58684 10.95354l-1.23889-.62789 9.7897-19.21111 1.24484.63447zm-9.03334 14.18185-1.5 1.21487c.05529-1.09971.1864-3.47.24757-4.58444l1.66359.84561 1.65195.83674zm8.97206-24.60908 1.243.63349-9.79123 19.21417-1.24562-.63319zm-45.65085 40.82564v-33.50925a25.74628 25.74628 0 0 1 21.80112 0v33.5093a27.779 27.779 0 0 0 -21.80112-.00005zm23.80115.00733v-33.52445a25.871 25.871 0 0 1 16.75978-1.726l-6.9403 13.61734a1.5467 1.5467 0 0 0 -.10692.398c-.1135 2.086-.34637 6.28218-.46 8.36781a1.00668 1.00668 0 0 0 1.628.83444l3.2637-2.64306 3.24029-2.64995a.19056.19056 0 0 1 .06641-.05957 1.38231 1.38231 0 0 0 .20117-.26954l4.15339-8.1352v25.79018a27.78126 27.78126 0 0 0 -21.80552 0z"/></svg>