<svg width="173" height="51" viewBox="0 0 173 51" fill="none" xmlns="http://www.w3.org/2000/svg">
<g clip-path="url(#clip0_32_912)">
<path d="M41.2633 25.531C41.2633 35.754 36.2447 44.7379 28.5 50.3141C40.6438 48.5793 49.9994 38.1084 49.9994 25.531C49.9994 12.8915 40.6438 2.48262 28.5 0.747803C36.1828 6.26205 41.2633 15.3079 41.2633 25.531Z" fill="#252422"/>
<path d="M17.4727 49.3229C19.2075 49.8805 20.9423 50.2523 22.801 50.3762C29.5544 44.1804 33.7676 35.3204 33.7676 25.4691C33.7676 15.6178 29.4925 6.75785 22.801 0.624023C20.9423 0.809896 19.1455 1.18164 17.4727 1.67731C23.1728 7.93505 26.6424 16.2994 26.6424 25.5311C26.6424 34.7628 23.1728 43.0652 17.4727 49.3229Z" fill="#252422"/>
<path d="M0 25.5311C-3.77e-07 34.1432 4.33705 41.7641 11.0285 46.225C16.5428 41.0206 20.0124 33.6476 20.0124 25.5311C20.0124 17.3526 16.5428 9.97966 11.0285 4.83716C4.33705 9.29812 3.79e-07 16.857 0 25.5311Z" fill="#252422"/>
<mask id="mask0_32_912" style="mask-type:luminance" maskUnits="userSpaceOnUse" x="65" y="0" width="108" height="51">
<path d="M173 0.5H65V50.5H173V0.5Z" fill="white"/>
</mask>
<g mask="url(#mask0_32_912)">
<path d="M77.4329 17.4871C72.9379 17.4871 70.3649 20.7421 70.3649 25.6401C70.3649 30.6931 73.2789 33.4521 77.4639 33.4521C81.4009 33.4521 83.7879 31.2821 83.7879 27.6551V27.5621H76.9369V24.0591H87.4769V36.8001H84.1289L83.8809 34.1961C82.6409 35.9321 80.0679 37.1411 76.9989 37.1411C70.6439 37.1411 66.2109 32.5221 66.2109 25.5471C66.2109 18.6651 70.7059 13.7671 77.5259 13.7671C82.7029 13.7671 86.7019 16.7741 87.3529 21.3931H83.1679C82.4549 18.7271 80.1609 17.4871 77.4329 17.4871ZM100.814 21.4241V24.9271H99.4189C96.6909 24.9271 94.9859 26.3841 94.9859 29.3601V36.8001H91.2039V21.5171H94.7689L94.9859 23.7491C95.6369 22.2301 97.0939 21.2071 99.1399 21.2071C99.6669 21.2071 100.194 21.2691 100.814 21.4241ZM107.325 37.2031C104.07 37.2031 102.086 35.3121 102.086 32.4291C102.086 29.6081 104.132 27.8411 107.759 27.5621L112.347 27.2211V26.8801C112.347 24.8031 111.107 23.9661 109.185 23.9661C106.953 23.9661 105.713 24.8961 105.713 26.5081H102.489C102.489 23.1911 105.217 21.0211 109.371 21.0211C113.494 21.0211 116.036 23.2531 116.036 27.5001V36.8001H112.719L112.44 34.5371C111.789 36.1181 109.712 37.2031 107.325 37.2031ZM108.565 34.3511C110.89 34.3511 112.378 32.9561 112.378 30.6001V29.7941L109.185 30.0421C106.829 30.2591 105.93 31.0341 105.93 32.2741C105.93 33.6691 106.86 34.3511 108.565 34.3511ZM119.752 43.8991V21.4861H123.255L123.503 23.8111C124.433 22.0441 126.448 21.0211 128.773 21.0211C133.082 21.0211 135.934 24.1521 135.934 28.9571C135.934 33.7311 133.33 37.2031 128.773 37.2031C126.479 37.2031 124.495 36.3041 123.534 34.7541V43.8991H119.752ZM123.565 29.1431C123.565 31.9021 125.27 33.7931 127.874 33.7931C130.54 33.7931 132.121 31.8711 132.121 29.1431C132.121 26.4151 130.54 24.4621 127.874 24.4621C125.27 24.4621 123.565 26.3841 123.565 29.1431ZM142.727 36.8001H138.945V13.7361H142.758V23.4701C143.719 21.9821 145.517 21.0211 147.718 21.0211C151.5 21.0211 153.484 23.4081 153.484 27.3761V36.8001H149.702V28.2751C149.702 25.7021 148.431 24.4621 146.509 24.4621C144.122 24.4621 142.727 26.1361 142.727 28.4301V36.8001ZM156.301 29.1121C156.301 24.3381 159.742 21.0521 164.485 21.0521C169.228 21.0521 172.669 24.3381 172.669 29.1121C172.669 33.8861 169.228 37.1721 164.485 37.1721C159.742 37.1721 156.301 33.8861 156.301 29.1121ZM160.083 29.1121C160.083 31.9021 161.881 33.7931 164.485 33.7931C167.089 33.7931 168.887 31.9021 168.887 29.1121C168.887 26.3221 167.089 24.4311 164.485 24.4311C161.881 24.4311 160.083 26.3221 160.083 29.1121Z" fill="#252422"/>
</g>
</g>
<defs>
<clipPath id="clip0_32_912">
<rect width="173" height="50" fill="white" transform="translate(0 0.5)"/>
</clipPath>
</defs>
</svg>
