<svg width="12" height="24" viewBox="0 0 12 24" fill="none" xmlns="http://www.w3.org/2000/svg">
<g clip-path="url(#clip0_217_178)">
<path d="M5.9186 23.1636H6.53142C7.34386 23.1636 7.75008 23.1636 8.03485 22.9567C8.12682 22.8899 8.2077 22.809 8.27452 22.717C8.48142 22.4322 8.48142 22.026 8.48142 21.2136V13.9969H9.91603C10.7285 13.9969 11.1347 13.9969 11.4195 13.79C11.5114 13.7232 11.5923 13.6423 11.6591 13.5503C11.866 13.2656 11.866 12.8594 11.866 12.0469V11.6691C11.866 10.8567 11.866 10.4505 11.6591 10.1657C11.5923 10.0737 11.5114 9.99285 11.4195 9.92603C11.1347 9.71913 10.7285 9.71913 9.91603 9.71913H8.48142V7.13366C8.48142 6.56561 8.48142 6.28158 8.5853 6.06179C8.69248 5.83499 8.87506 5.65242 9.10185 5.54523C9.32165 5.44135 9.60567 5.44135 10.1737 5.44135C10.7418 5.44135 11.0258 5.44135 11.2456 5.33748C11.4724 5.23029 11.655 5.04772 11.7622 4.82092C11.866 4.60112 11.866 4.3171 11.866 3.74904V2.91856C11.866 2.29139 11.866 1.97781 11.7401 1.73999C11.6385 1.54807 11.4815 1.39111 11.2896 1.28949C11.0518 1.16357 10.7382 1.16357 10.111 1.16357C7.91597 1.16357 6.81843 1.16357 5.98607 1.60428C5.31432 1.95994 4.76497 2.50929 4.4093 3.18104C3.9686 4.01341 3.9686 5.11095 3.9686 7.30602V9.71913H2.53398C1.72154 9.71913 1.31532 9.71913 1.03055 9.92603C0.938581 9.99285 0.857702 10.0737 0.790883 10.1657C0.583984 10.4505 0.583984 10.8567 0.583984 11.6691V12.0469C0.583984 12.8594 0.583984 13.2656 0.790883 13.5503C0.857702 13.6423 0.938581 13.7232 1.03055 13.79C1.31532 13.9969 1.72154 13.9969 2.53399 13.9969H3.9686V21.2136C3.9686 22.026 3.9686 22.4322 4.1755 22.717C4.24232 22.809 4.3232 22.8899 4.41517 22.9567C4.69994 23.1636 5.10616 23.1636 5.9186 23.1636Z" fill="#252422"/>
</g>
<defs>
<clipPath id="clip0_217_178">
<rect width="12" height="23" fill="white" transform="translate(0 0.5)"/>
</clipPath>
</defs>
</svg>
