<svg width="23" height="24" viewBox="0 0 23 24" fill="none" xmlns="http://www.w3.org/2000/svg">
<g clip-path="url(#clip0_217_184)">
<path fill-rule="evenodd" clip-rule="evenodd" d="M0.4375 10.4261C0.4375 6.56698 0.4375 4.63743 1.42027 3.28476C1.73766 2.84791 2.12183 2.46373 2.55869 2.14634C3.91135 1.16357 5.8409 1.16357 9.7 1.16357H13.175C17.0341 1.16357 18.9636 1.16357 20.3163 2.14634C20.7532 2.46373 21.1373 2.84791 21.4547 3.28476C22.4375 4.63743 22.4375 6.56698 22.4375 10.4261V13.9011C22.4375 17.7602 22.4375 19.6897 21.4547 21.0424C21.1373 21.4792 20.7532 21.8634 20.3163 22.1808C18.9636 23.1636 17.0341 23.1636 13.175 23.1636H9.7C5.8409 23.1636 3.91135 23.1636 2.55869 22.1808C2.12183 21.8634 1.73766 21.4792 1.42027 21.0424C0.4375 19.6897 0.4375 17.7602 0.4375 13.9011V10.4261ZM6.36058 9.65877C6.80931 9.65877 7.17308 10.0225 7.17308 10.4713V17.2405C7.17308 17.6892 6.80931 18.053 6.36058 18.053C5.91185 18.053 5.54808 17.6892 5.54808 17.2405V10.4713C5.54808 10.0225 5.91185 9.65877 6.36058 9.65877ZM10.3093 9.65877C10.758 9.65877 11.1218 10.0225 11.1218 10.4713V10.7991C11.944 10.0886 13.0155 9.65877 14.1875 9.65877C15.9214 9.65877 17.3269 11.0643 17.3269 12.7982V17.2405C17.3269 17.6892 16.9632 18.053 16.5144 18.053C16.0657 18.053 15.7019 17.6892 15.7019 17.2405V12.7982C15.7019 11.9618 15.0239 11.2838 14.1875 11.2838C12.4944 11.2838 11.1218 12.6563 11.1218 14.3495V17.2405C11.1218 17.6892 10.758 18.053 10.3093 18.053C9.86056 18.053 9.49679 17.6892 9.49679 17.2405V14.3495V10.4713C9.49679 10.0225 9.86056 9.65877 10.3093 9.65877ZM6.3599 8.2152C6.98299 8.2152 7.4881 7.71008 7.4881 7.08699C7.4881 6.4639 6.98299 5.95879 6.3599 5.95879C5.73681 5.95879 5.23169 6.4639 5.23169 7.08699C5.23169 7.71008 5.73681 8.2152 6.3599 8.2152Z" fill="#252422"/>
</g>
<defs>
<clipPath id="clip0_217_184">
<rect width="23" height="23" fill="white" transform="translate(0 0.5)"/>
</clipPath>
</defs>
</svg>
