<svg width="23" height="24" viewBox="0 0 23 24" fill="none" xmlns="http://www.w3.org/2000/svg">
<g clip-path="url(#clip0_217_180)">
<path fill-rule="evenodd" clip-rule="evenodd" d="M13.175 1.16357H9.7C5.8409 1.16357 3.91135 1.16357 2.55869 2.14634C2.12183 2.46373 1.73766 2.84791 1.42027 3.28476C0.4375 4.63743 0.4375 6.56698 0.4375 10.4261V13.9011C0.4375 17.7602 0.4375 19.6897 1.42027 21.0424C1.73766 21.4792 2.12183 21.8634 2.55869 22.1808C3.91135 23.1636 5.8409 23.1636 9.7 23.1636H13.175C17.0341 23.1636 18.9636 23.1636 20.3163 22.1808C20.7532 21.8634 21.1373 21.4792 21.4547 21.0424C22.4375 19.6897 22.4375 17.7602 22.4375 13.9011V10.4261C22.4375 6.56698 22.4375 4.63743 21.4547 3.28476C21.1373 2.84791 20.7532 2.46373 20.3163 2.14634C18.9636 1.16357 17.0341 1.16357 13.175 1.16357ZM15.9496 12.1639C15.9496 14.6563 13.9292 16.6767 11.4368 16.6767C8.94446 16.6767 6.924 14.6563 6.924 12.1639C6.924 9.67155 8.94446 7.65109 11.4368 7.65109C13.9292 7.65109 15.9496 9.67155 15.9496 12.1639ZM17.6426 7.08682C18.2657 7.08682 18.7708 6.58171 18.7708 5.95862C18.7708 5.33553 18.2657 4.83041 17.6426 4.83041C17.0195 4.83041 16.5144 5.33553 16.5144 5.95862C16.5144 6.58171 17.0195 7.08682 17.6426 7.08682Z" fill="#252422"/>
</g>
<defs>
<clipPath id="clip0_217_180">
<rect width="23" height="23" fill="white" transform="translate(0 0.5)"/>
</clipPath>
</defs>
</svg>
