<svg width="25" height="24" viewBox="0 0 25 24" fill="none" xmlns="http://www.w3.org/2000/svg">
<g clip-path="url(#clip0_217_189)">
<path d="M1.92592 20.7964C1.39709 21.3252 1.39709 22.1826 1.92592 22.7114C2.45476 23.2403 3.31217 23.2403 3.841 22.7114L1.92592 20.7964ZM23.0204 3.53192C23.5493 3.00308 23.5493 2.14567 23.0204 1.61684C22.4916 1.08801 21.6342 1.08801 21.1054 1.61684L23.0204 3.53192ZM3.841 22.7114L12.3025 14.2499L10.3874 12.3348L1.92592 20.7964L3.841 22.7114ZM14.5589 11.9935L23.0204 3.53192L21.1054 1.61684L12.6438 10.0784L14.5589 11.9935Z" fill="#252422"/>
<path d="M5.96207 1.16357H3.62622C2.45919 1.16357 1.87568 1.16357 1.63171 1.47074C1.55562 1.56653 1.50215 1.67827 1.47528 1.79762C1.38912 2.1803 1.75518 2.63472 2.48729 3.54354L17.8533 22.6185C18.0447 22.8562 18.1404 22.975 18.2665 23.0498C18.3081 23.0745 18.3518 23.0954 18.3972 23.1123C18.5345 23.1636 18.6871 23.1636 18.9922 23.1636H21.3199C22.4866 23.1636 23.07 23.1636 23.3139 22.8565C23.39 22.7607 23.4435 22.649 23.4704 22.5297C23.5566 22.147 23.1907 21.6927 22.4591 20.7839L7.10124 1.7089C6.90983 1.47116 6.81412 1.35229 6.68801 1.27742C6.64639 1.25271 6.60265 1.23177 6.5573 1.21485C6.4199 1.16357 6.26729 1.16357 5.96207 1.16357Z" fill="#252422"/>
</g>
<defs>
<clipPath id="clip0_217_189">
<rect width="25" height="23" fill="white" transform="translate(0 0.5)"/>
</clipPath>
</defs>
</svg>
